<svg width="153" height="87" viewBox="0 0 153 87" fill="none" xmlns="http://www.w3.org/2000/svg">
        <path d="M12.3016 56.3169L12.0626 71.2468L3.72846 71.1134L4.28723 36.2088L12.3487 36.3378L12.1321 49.8702L12.4218 49.8748C13.0385 48.2709 14.0244 47.0251 15.3797 46.1376C16.7464 45.2503 18.4068 44.8223 20.3611 44.8536C22.2018 44.883 23.7973 45.3177 25.1477 46.1576C26.4982 46.9862 27.5367 48.145 28.2629 49.6341C29.0005 51.1233 29.3478 52.8564 29.3048 54.8332L29.0377 71.5186L20.7036 71.3852L20.9445 56.336C20.9791 54.8818 20.6337 53.7397 19.9083 52.9098C19.1828 52.0799 18.1497 51.6543 16.809 51.6328C15.9341 51.6188 15.1584 51.7996 14.4818 52.1752C13.8168 52.5396 13.2912 53.071 12.905 53.7694C12.5301 54.4681 12.329 55.3172 12.3016 56.3169ZM41.6128 72.1631C39.9426 72.1364 38.4643 71.8343 37.1779 71.2568C35.9031 70.6681 34.8998 69.7997 34.1681 68.6515C33.4479 67.4921 33.1016 66.0488 33.1293 64.3218C33.1526 62.8674 33.4279 61.6444 33.9552 60.6527C34.4825 59.661 35.1999 58.8599 36.1075 58.2494C37.0152 57.6388 38.0567 57.1838 39.2321 56.8844C40.4076 56.5737 41.661 56.3721 42.9922 56.2798C44.4829 56.1672 45.6838 56.0444 46.5952 55.9112C47.5067 55.7667 48.1693 55.5557 48.5828 55.2782C49.008 54.9895 49.2248 54.5782 49.2334 54.0441L49.2347 53.9589C49.2487 53.084 48.9585 52.4032 48.3639 51.9163C47.7693 51.4295 46.9608 51.1779 45.9382 51.1615C44.836 51.1438 43.946 51.3683 43.268 51.8347C42.59 52.3012 42.1533 52.9534 41.9581 53.7913L34.2759 53.3956C34.5286 51.8085 35.1365 50.3976 36.0996 49.1628C37.0742 47.9169 38.3967 46.9493 40.067 46.2601C41.7489 45.5596 43.7601 45.2281 46.1007 45.2656C47.771 45.2923 49.3074 45.5158 50.7099 45.9361C52.1126 46.3449 53.3307 46.9327 54.364 47.6993C55.3975 48.4546 56.1896 49.3765 56.7405 50.465C57.3027 51.5537 57.5727 52.7911 57.5505 54.1773L57.2656 71.9705L49.4257 71.845L49.4841 68.1977L49.2796 68.1944C48.7996 69.0732 48.191 69.8136 47.454 70.4155C46.7284 71.0176 45.8746 71.4642 44.8925 71.7553C43.9218 72.0467 42.8286 72.1826 41.6128 72.1631ZM44.2737 66.7505C45.1713 66.7648 45.9809 66.596 46.7025 66.2438C47.4355 65.8919 48.023 65.4012 48.465 64.7719C48.9071 64.1311 49.135 63.3847 49.1486 62.5325L49.1884 60.0442C48.9478 60.1654 48.6563 60.2743 48.3138 60.3711C47.9826 60.4681 47.6175 60.5589 47.2184 60.6434C46.8192 60.728 46.4089 60.8009 45.9874 60.8624C45.566 60.9238 45.1616 60.9799 44.7744 61.0305C43.9884 61.1429 43.3149 61.3253 42.754 61.5778C42.2044 61.8304 41.7786 62.1645 41.4764 62.5802C41.1858 62.9847 41.036 63.471 41.0269 64.0391C41.013 64.9026 41.3093 65.5665 41.9156 66.0308C42.5332 66.4953 43.3192 66.7352 44.2737 66.7505ZM62.3616 72.052L62.9203 37.1474L71.2545 37.2808L71.0431 50.4894L71.2135 50.4921C71.5671 49.7022 72.0623 48.943 72.699 48.2145C73.3471 47.4861 74.1635 46.8968 75.1481 46.4466C76.1442 45.9852 77.3297 45.7655 78.7045 45.7875C80.5225 45.8166 82.2135 46.321 83.7775 47.3008C85.353 48.2806 86.6133 49.7726 87.5587 51.7766C88.504 53.7806 88.952 56.3222 88.9027 59.4014C88.8552 62.3669 88.3439 64.842 87.3689 66.8266C86.4052 68.8115 85.1199 70.2911 83.5132 71.2655C81.9179 72.2401 80.1544 72.7119 78.2229 72.681C76.9048 72.6599 75.7664 72.4257 74.8075 71.9785C73.8487 71.5313 73.0453 70.9502 72.3976 70.2352C71.7613 69.5204 71.2734 68.7568 70.9341 67.9444L70.6785 67.9403L70.6105 72.1841L62.3616 72.052ZM70.7348 59.0935C70.7123 60.5024 70.8801 61.7325 71.2383 62.7838C71.6079 63.8354 72.146 64.6566 72.8525 65.2475C73.5706 65.8273 74.4353 66.1252 75.4465 66.1414C76.4691 66.1578 77.3428 65.8876 78.0678 65.331C78.7928 64.763 79.3456 63.9592 79.7259 62.9197C80.1176 61.8804 80.3247 60.6563 80.3472 59.2474C80.3698 57.8385 80.2019 56.614 79.8435 55.5741C79.4964 54.5343 78.9696 53.7246 78.2628 53.145C77.5675 52.5657 76.7028 52.2677 75.6689 52.2511C74.6463 52.2348 73.7726 52.4992 73.0479 53.0445C72.3231 53.5898 71.7593 54.3763 71.3565 55.4041C70.965 56.4321 70.7578 57.6619 70.7348 59.0935ZM93.0608 72.5435L93.4798 46.365L101.814 46.4984L101.395 72.6769L93.0608 72.5435ZM97.7043 43.3811C96.534 43.3624 95.5346 42.96 94.7062 42.1739C93.8779 41.3764 93.4726 40.4266 93.4903 39.3245C93.5077 38.2337 93.943 37.3088 94.7962 36.5496C95.6496 35.7791 96.6614 35.4032 97.8317 35.4219C99.0134 35.4408 100.013 35.8489 100.83 36.6462C101.658 37.4323 102.063 38.3707 102.046 39.4615C102.028 40.5636 101.593 41.4999 100.739 42.2705C99.8977 43.0298 98.8859 43.4 97.7043 43.3811ZM121.895 46.8199L121.797 52.9555L105.282 52.6911L105.38 46.5555L121.895 46.8199ZM108.94 40.339L117.275 40.4724L116.887 64.6909C116.879 65.2022 116.952 65.6182 117.106 65.9389C117.271 66.2484 117.512 66.4739 117.828 66.6153C118.144 66.7454 118.524 66.814 118.967 66.8211C119.285 66.8261 119.621 66.8031 119.974 66.7519C120.338 66.6896 120.612 66.6371 120.794 66.5946L121.959 72.6311C121.56 72.7383 120.995 72.8713 120.265 73.0301C119.547 73.1891 118.687 73.2833 117.687 73.3128C115.731 73.3724 114.059 73.1183 112.67 72.5505C111.292 71.9716 110.244 71.0911 109.524 69.9089C108.816 68.727 108.487 67.25 108.538 65.4778L108.94 40.339ZM148.547 55.2419L140.891 55.3239C140.82 54.7773 140.612 54.2909 140.266 53.8649C139.921 53.4275 139.466 53.0849 138.902 52.8372C138.349 52.5783 137.704 52.443 136.965 52.4312C135.999 52.4157 135.172 52.5957 134.484 52.9711C133.808 53.3467 133.47 53.864 133.471 54.5232C133.451 55.0343 133.649 55.4807 134.063 55.8624C134.489 56.2443 135.251 56.5577 136.35 56.8025L141.379 57.8377C143.984 58.3795 145.914 59.24 147.168 60.4194C148.433 61.5989 149.056 63.1431 149.037 65.0521C148.997 66.8472 148.438 68.4009 147.36 69.7134C146.294 71.026 144.845 72.0371 143.016 72.7465C141.186 73.4446 139.101 73.7749 136.76 73.7374C133.022 73.6776 130.086 72.8634 127.952 71.295C125.829 69.7154 124.635 67.6278 124.37 65.0323L132.605 64.9596C132.771 65.9169 133.231 66.6516 133.985 67.1637C134.738 67.6759 135.705 67.9414 136.887 67.9603C137.955 67.9774 138.827 67.7925 139.504 67.4055C140.181 67.0186 140.53 66.4957 140.552 65.8369C140.55 65.2459 140.296 64.7702 139.791 64.4097C139.285 64.038 138.489 63.7411 137.401 63.5191L132.848 62.5768C130.231 62.0576 128.29 61.1457 127.027 59.8412C125.764 58.5254 125.154 56.8677 125.197 54.8681C125.214 53.1182 125.704 51.6315 126.667 50.4081C127.63 49.1734 128.986 48.2404 130.735 47.6092C132.484 46.978 134.54 46.6814 136.903 46.7192C140.448 46.776 143.231 47.5649 145.253 49.0861C147.274 50.5959 148.372 52.6479 148.547 55.2419Z" fill="white"/>
        <rect x="2.71514" y="0.58817" width="15" height="15" rx="3.5" transform="rotate(0.917137 2.71514 0.58817)" fill="#18181B" stroke="#27272A"/>
        <rect x="22.7126" y="0.908299" width="15" height="15" rx="3.5" transform="rotate(0.917137 22.7126 0.908299)" fill="#4C1D95" stroke="#6D28D9"/>
        <rect x="42.71" y="1.22843" width="15" height="15" rx="3.5" transform="rotate(0.917137 42.71 1.22843)" fill="#5B21B6" stroke="#7C3AED"/>
        <rect x="62.7074" y="1.54856" width="15" height="15" rx="3.5" transform="rotate(0.917137 62.7074 1.54856)" fill="#6D28D9" stroke="#8B5CF6"/>
        <rect x="82.7049" y="1.86869" width="15" height="15" rx="3.5" transform="rotate(0.917137 82.7049 1.86869)" fill="#7C3AED" stroke="#A78BFA"/>
        <rect x="102.702" y="2.18882" width="15" height="15" rx="3.5" transform="rotate(0.917137 102.702 2.18882)" fill="#8B5CF6" stroke="#C4B5FD"/>
        </svg>